<svg xmlns="http://www.w3.org/2000/svg" xmlns:xlink="http://www.w3.org/1999/xlink" xmlns:svgjs="http://svgjs.dev/svgjs" width="200" height="224" viewBox="0 0 210 224"><svg viewBox="0 0 396 89" data-background-color="#ffffff" height="224" width="1000" xmlns="http://www.w3.org/2000/svg" xmlns:xlink="http://www.w3.org/1999/xlink" transform="translate(-.606 .171)"><svg height="89.136" width="395.52" transform="translate(.24 -.068)"><svg viewBox="0 0 515.373 116.146" height="89.136" width="395.52"><svg height="84.042" width="395.52" transform="translate(119.853 16.052)"/><svg height="116.146" width="108.05"><svg xmlns="http://www.w3.org/2000/svg" viewBox="8.912 4.989 82.178 88.336" height="116.146" width="108.05" class="icon-icon-0" data-fill-palette-color="accent"><path d="M90.83 52.403c-.038-.056-3.838-5.639-8.306-11.146-8.434-10.397-11.898-11.599-13.77-11.599h-6.1c-.05 0-.098.01-.146.015l-10.197-6.325v-3.296c3.369-.794 5.887-3.818 5.887-7.426 0-4.211-3.426-7.637-7.637-7.637s-7.637 3.426-7.637 7.637a1.75 1.75 0 003.5 0 4.142 4.142 0 014.137-4.137c2.281 0 4.137 1.856 4.137 4.137s-1.855 4.137-4.137 4.137a1.75 1.75 0 00-1.75 1.75v4.838L38.64 29.659h-7.22c-5.827 0-18.493 17.395-22.236 22.726a1.5 1.5 0 00.28 2.025l14.08 11.478a1.497 1.497 0 002.111-.214l1.434-1.759v27.91a1.5 1.5 0 001.5 1.5h43.167a1.5 1.5 0 001.5-1.5V64.332l1.094 1.341a1.498 1.498 0 002.11.214l14.079-11.479a1.5 1.5 0 00.291-2.005zM50.562 26.382l10.498 6.511c-.54 3.474-3.567 6.145-7.223 6.145h-5.834c-3.787 0-6.906-2.891-7.251-6.571l9.81-6.085z" data-fill-palette-color="accent"/></svg></svg></svg></svg></svg></svg>