<svg xmlns="http://www.w3.org/2000/svg" version="1.1" xmlns:xlink="http://www.w3.org/1999/xlink" xmlns:svgjs="http://svgjs.dev/svgjs" width="2000" height="449" viewBox="0 0 2000 449"><g transform="matrix(1,0,0,1,-1.2121212121212466,0.34271326194004814)"><svg viewBox="0 0 396 89" data-background-color="#ffffff" preserveAspectRatio="xMidYMid meet" height="449" width="2000" xmlns="http://www.w3.org/2000/svg" xmlns:xlink="http://www.w3.org/1999/xlink"><g id="tight-bounds" transform="matrix(1,0,0,1,0.2400000000000091,-0.06793202742241533)"><svg viewBox="0 0 395.52 89.13586405484483" height="89.13586405484483" width="395.52"><g><svg viewBox="0 0 515.3734282601632 116.14648017515484" height="89.13586405484483" width="395.52"><g transform="matrix(1,0,0,1,119.85342826016321,16.05208228180505)"><svg viewBox="0 0 395.52 84.04231561154474" height="84.04231561154474" width="395.52"><g id="textblocktransform"><svg viewBox="0 0 395.52 84.04231561154474" height="84.04231561154474" width="395.52" id="textblock"><g><rect width="395.52" height="69.97608727536758" fill="none" stroke-width="9.018103199999999" stroke="#ffffff" data-fill-palette-color="none" data-stroke-palette-color="tertiary"></rect><rect width="395.52" height="14.066228336177167" y="69.97608727536758" fill="#ffffff" data-fill-palette-color="tertiary"></rect></g><g><svg viewBox="0 0 395.52 69.97608727536758" height="69.97608727536758" width="395.52"><g transform="matrix(1,0,0,1,23.607599999999998,23.607599999999998)"><svg width="348.3048" viewBox="3.85 -35.5 550.85 36" height="22.760887275367583" data-palette-color="#ffffff"><path d="M25.3-7.05L26.65-6.4Q25.3-3.1 22.85-1.3 20.4 0.5 15.5 0.5L15.5 0.5Q9.35 0.5 6.6-3.28 3.85-7.05 3.85-15.05L3.85-15.05 3.85-19.95Q3.85-27.95 6.6-31.73 9.35-35.5 15.5-35.5L15.5-35.5Q20.4-35.5 22.85-33.7 25.3-31.9 26.65-28.6L26.65-28.6 25.3-27.95Q24.15-30.85 22.05-32.43 19.95-34 15.5-34L15.5-34Q13.05-34 11.3-33.38 9.55-32.75 8.15-31.25 6.75-29.75 6.05-26.93 5.35-24.1 5.35-19.95L5.35-19.95 5.35-15.05Q5.35-10.9 6.05-8.08 6.75-5.25 8.15-3.75 9.55-2.25 11.3-1.63 13.05-1 15.5-1L15.5-1Q19.95-1 22.05-2.58 24.15-4.15 25.3-7.05L25.3-7.05ZM35.8-1.5L55.2-1.5 55.2 0 34.3 0 34.3-35 35.8-35 35.8-1.5ZM80.35-3.28Q77.6 0.5 71.45 0.5 65.3 0.5 62.55-3.28 59.8-7.05 59.8-15.05L59.8-15.05 59.8-19.95Q59.8-27.95 62.55-31.73 65.3-35.5 71.45-35.5 77.6-35.5 80.35-31.73 83.1-27.95 83.1-19.95L83.1-19.95 83.1-15.05Q83.1-7.05 80.35-3.28ZM75.65-33.38Q73.9-34 71.45-34 69-34 67.25-33.38 65.5-32.75 64.1-31.25 62.7-29.75 62-26.93 61.3-24.1 61.3-19.95L61.3-19.95 61.3-15.05Q61.3-10.9 62-8.08 62.7-5.25 64.1-3.75 65.5-2.25 67.25-1.63 69-1 71.45-1 73.9-1 75.65-1.63 77.4-2.25 78.8-3.75 80.2-5.25 80.9-8.08 81.6-10.9 81.6-15.05L81.6-15.05 81.6-19.95Q81.6-24.1 80.9-26.93 80.2-29.75 78.8-31.25 77.4-32.75 75.65-33.38ZM87.69-35L112.69-35 112.69-33.5 100.94-33.5 100.94 0 99.44 0 99.44-33.5 87.69-33.5 87.69-35ZM139.39-35L139.39 0 137.89 0 137.89-17.5 119.89-17.5 119.89 0 118.39 0 118.39-35 119.89-35 119.89-19 137.89-19 137.89-35 139.39-35ZM167.24-19.8L167.24-18.3 152.39-18.3 167.69-33.5 150.79-33.5 150.79-1.5 170.19-1.5 170.19 0 149.29 0 149.29-35 171.34-35 156.04-19.8 167.24-19.8ZM177.04-26.35L177.04-26.35Q177.04-31.2 179.49-33.35 181.94-35.5 187.44-35.5L187.44-35.5Q191.29-35.5 193.64-33.5 195.99-31.5 197.04-27.4L197.04-27.4 192.39-23.9 189.94-23.9 195.34-27.95Q194.29-31.3 192.31-32.65 190.34-34 187.44-34L187.44-34Q185.44-34 184.06-33.75 182.69-33.5 181.31-32.77 179.94-32.05 179.24-30.45 178.54-28.85 178.54-26.35L178.54-26.35Q178.54-24.15 180.56-22.45 182.59-20.75 185.49-19.55 188.39-18.35 191.31-17.1 194.24-15.85 196.26-13.9 198.29-11.95 198.29-9.4L198.29-9.4Q198.29-4.4 195.81-1.95 193.34 0.5 187.34 0.5L187.34 0.5Q182.44 0.5 179.64-1.48 176.84-3.45 175.79-7.6L175.79-7.6 177.19-8.2Q178.19-4.15 180.61-2.58 183.04-1 187.34-1L187.34-1Q192.14-1 194.46-2.85 196.79-4.7 196.79-9.4L196.79-9.4Q196.79-11.6 194.76-13.3 192.74-15 189.81-16.2 186.89-17.4 183.99-18.65 181.09-19.9 179.06-21.85 177.04-23.8 177.04-26.35ZM240.63-33.5L223.98-33.5 238.13-6.85Q240.63-11 240.63-16.7L240.63-16.7 242.13-16.7Q242.13-9.7 239.03-5.15L239.03-5.15 241.78 0 240.08 0 238.03-3.9Q234.33 0.25 228.53 0.25L228.53 0.25Q224.53 0.25 221.53-2.83 218.53-5.9 218.53-11.2L218.53-11.2Q218.53-15.35 221.18-18.1 223.83-20.85 228.63-21.5L228.63-21.5 221.48-35 240.63-35 240.63-33.5ZM237.18-5.45L237.18-5.45 229.43-20.05Q225.23-19.5 222.63-17.05 220.03-14.6 220.03-11.2L220.03-11.2Q220.03-6.95 222.63-4.1 225.23-1.25 228.53-1.25L228.53-1.25Q233.83-1.25 237.18-5.45ZM265.83 0L265.83-1.5 284.23-1.5 273.63-30.65 262.48 0 260.88 0 273.63-35.05 286.38 0 265.83 0ZM312.57-7.05L313.92-6.4Q312.57-3.1 310.12-1.3 307.67 0.5 302.77 0.5L302.77 0.5Q296.62 0.5 293.87-3.28 291.12-7.05 291.12-15.05L291.12-15.05 291.12-19.95Q291.12-27.95 293.87-31.73 296.62-35.5 302.77-35.5L302.77-35.5Q307.67-35.5 310.12-33.7 312.57-31.9 313.92-28.6L313.92-28.6 312.57-27.95Q311.42-30.85 309.32-32.43 307.22-34 302.77-34L302.77-34Q300.32-34 298.57-33.38 296.82-32.75 295.42-31.25 294.02-29.75 293.32-26.93 292.62-24.1 292.62-19.95L292.62-19.95 292.62-15.05Q292.62-10.9 293.32-8.08 294.02-5.25 295.42-3.75 296.82-2.25 298.57-1.63 300.32-1 302.77-1L302.77-1Q307.22-1 309.32-2.58 311.42-4.15 312.57-7.05L312.57-7.05ZM341.92-7.05L343.27-6.4Q341.92-3.1 339.47-1.3 337.02 0.5 332.12 0.5L332.12 0.5Q325.97 0.5 323.22-3.28 320.47-7.05 320.47-15.05L320.47-15.05 320.47-19.95Q320.47-27.95 323.22-31.73 325.97-35.5 332.12-35.5L332.12-35.5Q337.02-35.5 339.47-33.7 341.92-31.9 343.27-28.6L343.27-28.6 341.92-27.95Q340.77-30.85 338.67-32.43 336.57-34 332.12-34L332.12-34Q329.67-34 327.92-33.38 326.17-32.75 324.77-31.25 323.37-29.75 322.67-26.93 321.97-24.1 321.97-19.95L321.97-19.95 321.97-15.05Q321.97-10.9 322.67-8.08 323.37-5.25 324.77-3.75 326.17-2.25 327.92-1.63 329.67-1 332.12-1L332.12-1Q336.57-1 338.67-2.58 340.77-4.15 341.92-7.05L341.92-7.05ZM368.87-19.8L368.87-18.3 354.02-18.3 369.32-33.5 352.42-33.5 352.42-1.5 371.82-1.5 371.82 0 350.92 0 350.92-35 372.97-35 357.67-19.8 368.87-19.8ZM378.67-26.35L378.67-26.35Q378.67-31.2 381.12-33.35 383.57-35.5 389.07-35.5L389.07-35.5Q392.92-35.5 395.27-33.5 397.62-31.5 398.67-27.4L398.67-27.4 394.02-23.9 391.57-23.9 396.97-27.95Q395.92-31.3 393.94-32.65 391.97-34 389.07-34L389.07-34Q387.07-34 385.69-33.75 384.32-33.5 382.94-32.77 381.57-32.05 380.87-30.45 380.17-28.85 380.17-26.35L380.17-26.35Q380.17-24.15 382.19-22.45 384.22-20.75 387.12-19.55 390.02-18.35 392.94-17.1 395.87-15.85 397.89-13.9 399.92-11.95 399.92-9.4L399.92-9.4Q399.92-4.4 397.44-1.95 394.97 0.5 388.97 0.5L388.97 0.5Q384.07 0.5 381.27-1.48 378.47-3.45 377.42-7.6L377.42-7.6 378.82-8.2Q379.82-4.15 382.24-2.58 384.67-1 388.97-1L388.97-1Q393.77-1 396.09-2.85 398.42-4.7 398.42-9.4L398.42-9.4Q398.42-11.6 396.39-13.3 394.37-15 391.44-16.2 388.52-17.4 385.62-18.65 382.72-19.9 380.69-21.85 378.67-23.8 378.67-26.35ZM406.71-26.35L406.71-26.35Q406.71-31.2 409.16-33.35 411.61-35.5 417.11-35.5L417.11-35.5Q420.96-35.5 423.31-33.5 425.66-31.5 426.71-27.4L426.71-27.4 422.06-23.9 419.61-23.9 425.01-27.95Q423.96-31.3 421.99-32.65 420.01-34 417.11-34L417.11-34Q415.11-34 413.74-33.75 412.36-33.5 410.99-32.77 409.61-32.05 408.91-30.45 408.21-28.85 408.21-26.35L408.21-26.35Q408.21-24.15 410.24-22.45 412.26-20.75 415.16-19.55 418.06-18.35 420.99-17.1 423.91-15.85 425.94-13.9 427.96-11.95 427.96-9.4L427.96-9.4Q427.96-4.4 425.49-1.95 423.01 0.5 417.01 0.5L417.01 0.5Q412.11 0.5 409.31-1.48 406.51-3.45 405.46-7.6L405.46-7.6 406.86-8.2Q407.86-4.15 410.29-2.58 412.71-1 417.01-1L417.01-1Q421.81-1 424.14-2.85 426.46-4.7 426.46-9.4L426.46-9.4Q426.46-11.6 424.44-13.3 422.41-15 419.49-16.2 416.56-17.4 413.66-18.65 410.76-19.9 408.74-21.85 406.71-23.8 406.71-26.35ZM455.26-3.28Q452.51 0.5 446.36 0.5 440.21 0.5 437.46-3.28 434.71-7.05 434.71-15.05L434.71-15.05 434.71-19.95Q434.71-27.95 437.46-31.73 440.21-35.5 446.36-35.5 452.51-35.5 455.26-31.73 458.01-27.95 458.01-19.95L458.01-19.95 458.01-15.05Q458.01-7.05 455.26-3.28ZM450.56-33.38Q448.81-34 446.36-34 443.91-34 442.16-33.38 440.41-32.75 439.01-31.25 437.61-29.75 436.91-26.93 436.21-24.1 436.21-19.95L436.21-19.95 436.21-15.05Q436.21-10.9 436.91-8.08 437.61-5.25 439.01-3.75 440.41-2.25 442.16-1.63 443.91-1 446.36-1 448.81-1 450.56-1.63 452.31-2.25 453.71-3.75 455.11-5.25 455.81-8.08 456.51-10.9 456.51-15.05L456.51-15.05 456.51-19.95Q456.51-24.1 455.81-26.93 455.11-29.75 453.71-31.25 452.31-32.75 450.56-33.38ZM470.71 0L470.71-1.5 484.51-1.5 478.46-18.1 481.26-19.7Q484.71-21.6 484.71-25.75L484.71-25.75Q484.71-33.5 472.91-33.5L472.91-33.5 468.31-33.5 468.31 0 466.81 0 466.81-35 472.91-35Q479.51-35 482.86-32.58 486.21-30.15 486.21-25.75L486.21-25.75Q486.21-20.75 482.01-18.4L482.01-18.4 480.31-17.45 486.66 0 470.71 0ZM495.81-35L495.81 0 494.31 0 494.31-35 495.81-35ZM523.65-19.8L523.65-18.3 508.8-18.3 524.1-33.5 507.2-33.5 507.2-1.5 526.6-1.5 526.6 0 505.7 0 505.7-35 527.75-35 512.45-19.8 523.65-19.8ZM533.45-26.35L533.45-26.35Q533.45-31.2 535.9-33.35 538.35-35.5 543.85-35.5L543.85-35.5Q547.7-35.5 550.05-33.5 552.4-31.5 553.45-27.4L553.45-27.4 548.8-23.9 546.35-23.9 551.75-27.95Q550.7-31.3 548.73-32.65 546.75-34 543.85-34L543.85-34Q541.85-34 540.48-33.75 539.1-33.5 537.73-32.77 536.35-32.05 535.65-30.45 534.95-28.85 534.95-26.35L534.95-26.35Q534.95-24.15 536.98-22.45 539-20.75 541.9-19.55 544.8-18.35 547.73-17.1 550.65-15.85 552.68-13.9 554.7-11.95 554.7-9.4L554.7-9.4Q554.7-4.4 552.23-1.95 549.75 0.5 543.75 0.5L543.75 0.5Q538.85 0.5 536.05-1.48 533.25-3.45 532.2-7.6L532.2-7.6 533.6-8.2Q534.6-4.15 537.03-2.58 539.45-1 543.75-1L543.75-1Q548.55-1 550.88-2.85 553.2-4.7 553.2-9.4L553.2-9.4Q553.2-11.6 551.18-13.3 549.15-15 546.23-16.2 543.3-17.4 540.4-18.65 537.5-19.9 535.48-21.85 533.45-23.8 533.45-26.35Z" opacity="1" transform="matrix(1,0,0,1,0,0)" fill="#ffffff" class="undefined-text-0" data-fill-palette-color="primary" id="text-0"></path></svg></g></svg></g></svg></g></svg></g><g><svg viewBox="0 0 108.04962826016322 116.14648017515484" height="116.14648017515484" width="108.04962826016322"><g><svg xmlns="http://www.w3.org/2000/svg" xmlns:xlink="http://www.w3.org/1999/xlink" version="1.1" x="0" y="0" viewBox="8.911556167475574 4.989000000000003 82.1778838893432 88.33599999999998" enable-background="new 0 0 100 100" xml:space="preserve" height="116.14648017515484" width="108.04962826016322" class="icon-icon-0" data-fill-palette-color="accent" id="icon-0"><path d="M90.83 52.403c-0.038-0.056-3.838-5.639-8.306-11.146C74.09 30.86 70.626 29.658 68.754 29.658h-6.1c-0.05 0-0.098 0.01-0.146 0.015l-10.197-6.325v-3.296c3.369-0.794 5.887-3.818 5.887-7.426 0-4.211-3.426-7.637-7.637-7.637s-7.637 3.426-7.637 7.637c0 0.966 0.784 1.75 1.75 1.75s1.75-0.784 1.75-1.75c0-2.281 1.856-4.137 4.137-4.137 2.281 0 4.137 1.856 4.137 4.137s-1.855 4.137-4.137 4.137c-0.966 0-1.75 0.784-1.75 1.75v4.838l-10.171 6.308h-4.731H31.42c-5.827 0-18.493 17.395-22.236 22.726-0.452 0.645-0.33 1.528 0.28 2.025l14.08 11.478c0.278 0.228 0.614 0.338 0.947 0.338 0.436 0 0.867-0.188 1.164-0.552l1.434-1.759v27.91c0 0.828 0.671 1.5 1.5 1.5h43.167c0.828 0 1.5-0.672 1.5-1.5V64.332l1.094 1.341c0.296 0.363 0.728 0.552 1.163 0.552 0.333 0 0.668-0.11 0.947-0.338l14.079-11.479C91.14 53.917 91.267 53.047 90.83 52.403zM50.562 26.382l10.498 6.511c-0.54 3.474-3.567 6.145-7.223 6.145h-5.834c-3.787 0-6.906-2.891-7.251-6.571L50.562 26.382z" fill="#ffffff" data-fill-palette-color="accent"></path></svg></g></svg></g></svg></g><defs></defs></svg><rect width="395.52" height="89.13586405484483" fill="none" stroke="none" visibility="hidden"></rect></g></svg></g></svg>